<svg xmlns="http://www.w3.org/2000/svg" xmlns:xlink="http://www.w3.org/1999/xlink" width="500" zoomAndPan="magnify" viewBox="0 0 375 374.999991" height="500" preserveAspectRatio="xMidYMid meet" version="1.0"><defs><clipPath id="2833943fa9"><path d="M 70 37.5 L 307 37.5 L 307 337.5 L 70 337.5 Z M 70 37.5 " clip-rule="nonzero"/></clipPath></defs><rect x="-37.5" width="450" fill="#ffffff" y="-37.499999" height="449.999989" fill-opacity="1"/><rect x="-37.5" width="450" fill="#ffffff" y="-37.499999" height="449.999989" fill-opacity="1"/><rect x="-37.5" width="450" fill="#ece1cd" y="-37.499999" height="449.999989" fill-opacity="1"/><g clip-path="url(#2833943fa9)"><path fill="#4d514a" d="M 303.523438 223.898438 C 300.78125 240.394531 289.25 253 282.929688 268.03125 C 276.25 283.921875 280.292969 299.882812 285.285156 315.515625 C 261.988281 329.4375 234.753906 337.445312 205.640625 337.46875 C 205.460938 336.996094 205.285156 336.523438 205.105469 336.054688 C 203.34375 331.375 201.625 326.640625 199.761719 321.96875 C 200.863281 318.347656 201.722656 315.707031 202.078125 315.066406 C 205.601562 308.800781 214.1875 303.070312 220.089844 301.011719 C 228.945312 297.925781 235.320312 283.539062 241.019531 274.882812 C 253.652344 255.703125 254.605469 255.644531 256.890625 251.867188 C 258.65625 248.945312 253.1875 247.828125 250.410156 248.023438 C 244.605469 248.433594 240.472656 254.40625 236.742188 259.113281 C 234.40625 262.0625 227.246094 271.203125 223.601562 268.660156 C 218.925781 265.390625 223.464844 249.878906 226.023438 245.621094 C 232.097656 235.496094 238.484375 225.695312 244.042969 215.195312 C 246.964844 209.683594 256.015625 196.8125 252.339844 190.558594 C 252.339844 190.554688 252.269531 190.441406 252.269531 190.441406 C 249.691406 186.054688 245.175781 188.398438 242.863281 192.257812 C 235.027344 205.328125 227.679688 219.417969 217.378906 230.285156 C 216.667969 231.035156 215.910156 231.785156 215.019531 232.179688 C 212.863281 233.125 210.910156 231 211.660156 228.472656 C 215.839844 214.371094 219.125 200.015625 222.664062 185.738281 C 224.019531 180.285156 227.769531 171.035156 223.617188 166.613281 L 223.5625 166.550781 C 222.394531 165.308594 220.777344 164.6875 219.109375 164.957031 C 212.71875 165.988281 211.316406 178.035156 209.75 183.457031 C 207.140625 192.519531 204.628906 201.636719 202.828125 210.890625 C 202.285156 213.667969 200.042969 227.542969 195.695312 225.992188 C 192.035156 224.6875 195.242188 213.320312 195.523438 210.179688 C 196.136719 203.253906 196.203125 196.332031 195.914062 189.480469 C 195.65625 183.488281 196.210938 174.171875 192.558594 169.703125 C 191.660156 168.605469 190.09375 168.621094 189 169.683594 C 186.765625 171.84375 185.351562 174.914062 185.101562 178.132812 C 184.125 190.75 182.921875 203.367188 183.035156 215.90625 C 183.066406 219.503906 182.578125 230.058594 177.582031 226.550781 C 175.039062 224.761719 173.472656 219.664062 172.71875 216.445312 C 170.96875 208.933594 171.199219 200.84375 169.664062 193.265625 C 168.382812 186.941406 162.855469 192.847656 162.90625 197.269531 C 163.078125 212.945312 166.65625 229.726562 164.089844 245.835938 L 163.527344 249.347656 C 162.3125 256.976562 161.984375 264.703125 162.5625 272.25 C 162.625 273.058594 162.707031 273.859375 162.816406 274.65625 C 160.722656 272.699219 158.699219 270.679688 156.824219 268.542969 C 147.253906 257.664062 139.132812 245.480469 132.75 232.433594 L 129.816406 226.433594 C 116.347656 198.894531 90.84375 177.296875 72.839844 153.527344 C 67.765625 146.828125 71.238281 131.527344 80.71875 139.75 C 92.074219 149.59375 100.792969 162.222656 112.476562 171.71875 C 117.484375 175.785156 126.117188 181.800781 132.792969 181.652344 C 145.917969 181.355469 134.898438 164.667969 130.777344 159.203125 C 116.421875 140.15625 104.382812 119.515625 91.9375 99.113281 C 88.765625 93.914062 87.902344 87.617188 89.550781 81.785156 C 90.363281 78.917969 93.214844 77.117188 96.097656 77.777344 C 109.03125 80.738281 117.503906 95.277344 125.347656 104.863281 C 134.992188 116.664062 142.859375 129.75 150.6875 142.78125 C 153.183594 146.9375 158.222656 158.164062 163.445312 159.207031 C 175.882812 161.6875 165.074219 136.546875 163.054688 131.929688 C 155.851562 115.457031 149.332031 98.691406 143.519531 81.679688 C 140.078125 71.613281 129.019531 50.75 138.617188 41.183594 C 138.871094 40.917969 139.140625 40.671875 139.429688 40.433594 C 141.914062 38.355469 144.457031 37.488281 146.933594 37.503906 C 153.253906 37.535156 159.121094 43.28125 162.378906 49.050781 C 170.113281 62.734375 174.238281 80.230469 179.707031 95 C 185.949219 111.875 192.054688 128.808594 197.441406 145.976562 C 198.921875 150.683594 204.902344 151.710938 207.785156 147.828125 C 208.976562 146.21875 209.511719 144.21875 209.976562 142.253906 C 216.589844 113.96875 214.164062 84.105469 213.78125 55.242188 C 213.671875 46.722656 219.304688 38.023438 228.984375 41.808594 C 228.984375 41.808594 229.230469 41.90625 229.242188 41.910156 C 243.035156 47.304688 240.964844 77.242188 241.832031 88.972656 C 243.496094 111.324219 242.839844 133.546875 243.125 155.902344 C 243.242188 165.3125 252.425781 194.175781 264.6875 193.871094 C 274.238281 193.632812 277.054688 171.542969 278.011719 164.390625 C 279.542969 152.964844 280.371094 139.148438 290.554688 131.941406 C 295.429688 128.492188 306.707031 124 306.765625 130.476562 C 306.847656 138.921875 305.441406 147.457031 304.914062 155.882812 C 303.5 178.574219 307.265625 201.359375 303.523438 223.898438 " fill-opacity="1" fill-rule="nonzero"/></g></svg>