<svg xmlns="http://www.w3.org/2000/svg" xmlns:xlink="http://www.w3.org/1999/xlink" width="500" zoomAndPan="magnify" viewBox="0 0 375 96.749999" height="129" preserveAspectRatio="xMidYMid meet" version="1.0"><defs><g/><clipPath id="bcbfb6b876"><path d="M 0.484375 0 L 374.515625 0 L 374.515625 96.5 L 0.484375 96.5 Z M 0.484375 0 " clip-rule="nonzero"/></clipPath><clipPath id="fedb79ab95"><path d="M 31 9.34375 L 92.636719 9.34375 L 92.636719 87.140625 L 31 87.140625 Z M 31 9.34375 " clip-rule="nonzero"/></clipPath></defs><g clip-path="url(#bcbfb6b876)"><path fill="#ffffff" d="M 0.484375 0 L 374.515625 0 L 374.515625 96.5 L 0.484375 96.5 Z M 0.484375 0 " fill-opacity="1" fill-rule="nonzero"/><path fill="#ffffff" d="M 0.484375 0 L 374.515625 0 L 374.515625 96.5 L 0.484375 96.5 Z M 0.484375 0 " fill-opacity="1" fill-rule="nonzero"/></g><g clip-path="url(#fedb79ab95)"><path fill="#4d514a" d="M 91.714844 57.6875 C 91.003906 61.964844 88.011719 65.238281 86.371094 69.136719 C 84.640625 73.257812 85.6875 77.394531 86.984375 81.449219 C 80.941406 85.0625 73.875 87.140625 66.324219 87.144531 C 66.28125 87.023438 66.234375 86.898438 66.1875 86.777344 C 65.730469 85.5625 65.285156 84.335938 64.800781 83.125 C 65.085938 82.1875 65.308594 81.5 65.402344 81.335938 C 66.316406 79.707031 68.542969 78.222656 70.074219 77.6875 C 72.371094 76.886719 74.023438 73.15625 75.5 70.910156 C 78.777344 65.9375 79.027344 65.921875 79.617188 64.941406 C 80.078125 64.183594 78.660156 63.894531 77.9375 63.945312 C 76.433594 64.050781 75.359375 65.601562 74.394531 66.820312 C 73.785156 67.585938 71.929688 69.957031 70.984375 69.296875 C 69.773438 68.449219 70.949219 64.425781 71.613281 63.320312 C 73.1875 60.695312 74.84375 58.15625 76.285156 55.429688 C 77.042969 54 79.390625 50.664062 78.4375 49.042969 C 78.4375 49.039062 78.421875 49.011719 78.421875 49.011719 C 77.75 47.871094 76.582031 48.480469 75.980469 49.480469 C 73.949219 52.871094 72.042969 56.527344 69.371094 59.34375 C 69.1875 59.539062 68.988281 59.734375 68.757812 59.835938 C 68.199219 60.082031 67.691406 59.53125 67.886719 58.875 C 68.972656 55.21875 69.824219 51.492188 70.742188 47.792969 C 71.09375 46.375 72.066406 43.976562 70.988281 42.828125 L 70.972656 42.8125 C 70.671875 42.492188 70.253906 42.332031 69.820312 42.402344 C 68.164062 42.667969 67.796875 45.792969 67.390625 47.199219 C 66.714844 49.550781 66.0625 51.914062 65.597656 54.3125 C 65.457031 55.035156 64.875 58.632812 63.746094 58.230469 C 62.796875 57.890625 63.628906 54.945312 63.703125 54.128906 C 63.859375 52.332031 63.878906 50.539062 63.804688 48.761719 C 63.738281 47.207031 63.878906 44.789062 62.933594 43.632812 C 62.699219 43.347656 62.292969 43.351562 62.011719 43.625 C 61.429688 44.1875 61.0625 44.984375 61 45.816406 C 60.746094 49.089844 60.433594 52.363281 60.464844 55.617188 C 60.472656 56.546875 60.34375 59.285156 59.050781 58.375 C 58.390625 57.910156 57.984375 56.589844 57.789062 55.753906 C 57.332031 53.804688 57.394531 51.707031 56.996094 49.742188 C 56.664062 48.101562 55.230469 49.636719 55.242188 50.78125 C 55.285156 54.847656 56.214844 59.199219 55.550781 63.378906 L 55.402344 64.289062 C 55.085938 66.269531 55.003906 68.273438 55.152344 70.230469 C 55.167969 70.4375 55.191406 70.648438 55.21875 70.855469 C 54.675781 70.347656 54.152344 69.820312 53.664062 69.265625 C 51.183594 66.445312 49.074219 63.285156 47.421875 59.902344 L 46.660156 58.34375 C 43.167969 51.203125 36.550781 45.601562 31.882812 39.4375 C 30.566406 37.699219 31.464844 33.730469 33.925781 35.863281 C 36.871094 38.417969 39.132812 41.691406 42.164062 44.152344 C 43.460938 45.210938 45.699219 46.769531 47.433594 46.730469 C 50.835938 46.652344 47.976562 42.324219 46.910156 40.90625 C 43.1875 35.96875 40.0625 30.613281 36.835938 25.324219 C 36.011719 23.972656 35.789062 22.339844 36.214844 20.828125 C 36.425781 20.085938 37.164062 19.617188 37.914062 19.789062 C 41.269531 20.558594 43.464844 24.328125 45.5 26.816406 C 48.003906 29.875 50.042969 33.269531 52.074219 36.648438 C 52.71875 37.726562 54.027344 40.640625 55.382812 40.910156 C 58.605469 41.554688 55.804688 35.03125 55.28125 33.835938 C 53.414062 29.5625 51.722656 25.214844 50.214844 20.800781 C 49.320312 18.191406 46.453125 12.777344 48.941406 10.296875 C 49.007812 10.230469 49.078125 10.164062 49.152344 10.101562 C 49.796875 9.5625 50.457031 9.339844 51.097656 9.34375 C 52.738281 9.351562 54.261719 10.84375 55.105469 12.339844 C 57.109375 15.886719 58.179688 20.425781 59.601562 24.257812 C 61.21875 28.632812 62.800781 33.023438 64.199219 37.476562 C 64.582031 38.699219 66.132812 38.964844 66.882812 37.957031 C 67.191406 37.539062 67.332031 37.019531 67.449219 36.511719 C 69.167969 29.175781 68.535156 21.429688 68.4375 13.945312 C 68.410156 11.734375 69.871094 9.476562 72.378906 10.460938 C 72.378906 10.460938 72.445312 10.484375 72.445312 10.488281 C 76.023438 11.886719 75.488281 19.648438 75.714844 22.691406 C 76.144531 28.488281 75.976562 34.253906 76.046875 40.050781 C 76.078125 42.492188 78.460938 49.980469 81.640625 49.898438 C 84.117188 49.839844 84.847656 44.109375 85.097656 42.253906 C 85.492188 39.289062 85.710938 35.707031 88.351562 33.835938 C 89.613281 32.941406 92.539062 31.777344 92.554688 33.457031 C 92.574219 35.648438 92.210938 37.863281 92.074219 40.046875 C 91.707031 45.933594 92.683594 51.84375 91.714844 57.6875 " fill-opacity="1" fill-rule="nonzero"/></g><g fill="#76807a" fill-opacity="1"><g transform="translate(117.606686, 73.975177)"><g><path d="M 4.5 0 L 1.421875 0 L 1.421875 -14.859375 L 9.3125 -14.859375 L 9.3125 -12.0625 L 4.5 -12.0625 L 4.5 -9.296875 L 10.09375 -9.296875 L 10.09375 -6.515625 L 4.5 -6.515625 Z M 4.5 0 "/></g></g></g><g fill="#76807a" fill-opacity="1"><g transform="translate(129.990472, 73.975177)"><g><path d="M 8.5 0.265625 C 7.425781 0.265625 6.425781 0.0664062 5.5 -0.328125 C 4.570312 -0.734375 3.753906 -1.285156 3.046875 -1.984375 C 2.347656 -2.691406 1.796875 -3.507812 1.390625 -4.4375 C 0.992188 -5.375 0.796875 -6.375 0.796875 -7.4375 C 0.796875 -8.5 0.992188 -9.488281 1.390625 -10.40625 C 1.796875 -11.332031 2.347656 -12.148438 3.046875 -12.859375 C 3.753906 -13.566406 4.566406 -14.117188 5.484375 -14.515625 C 6.410156 -14.910156 7.40625 -15.109375 8.46875 -15.109375 C 9.53125 -15.109375 10.523438 -14.910156 11.453125 -14.515625 C 12.390625 -14.117188 13.207031 -13.566406 13.90625 -12.859375 C 14.613281 -12.148438 15.164062 -11.332031 15.5625 -10.40625 C 15.96875 -9.488281 16.171875 -8.5 16.171875 -7.4375 C 16.171875 -6.375 15.96875 -5.375 15.5625 -4.4375 C 15.164062 -3.507812 14.613281 -2.691406 13.90625 -1.984375 C 13.207031 -1.285156 12.394531 -0.734375 11.46875 -0.328125 C 10.550781 0.0664062 9.5625 0.265625 8.5 0.265625 Z M 8.46875 -12.15625 C 7.632812 -12.15625 6.875 -11.941406 6.1875 -11.515625 C 5.5 -11.097656 4.957031 -10.53125 4.5625 -9.8125 C 4.164062 -9.101562 3.96875 -8.3125 3.96875 -7.4375 C 3.96875 -6.5625 4.164062 -5.765625 4.5625 -5.046875 C 4.957031 -4.328125 5.5 -3.757812 6.1875 -3.34375 C 6.875 -2.925781 7.644531 -2.71875 8.5 -2.71875 C 9.332031 -2.71875 10.085938 -2.925781 10.765625 -3.34375 C 11.453125 -3.757812 11.992188 -4.328125 12.390625 -5.046875 C 12.796875 -5.765625 13 -6.5625 13 -7.4375 C 13 -8.3125 12.796875 -9.101562 12.390625 -9.8125 C 11.984375 -10.53125 11.4375 -11.097656 10.75 -11.515625 C 10.070312 -11.941406 9.3125 -12.15625 8.46875 -12.15625 Z M 8.46875 -12.15625 "/></g></g></g><g fill="#76807a" fill-opacity="1"><g transform="translate(148.65554, 73.975177)"><g><path d="M 6.0625 -2.578125 L 4.5 -2.578125 L 4.5 0 L 1.421875 0 L 1.421875 -14.859375 L 6.578125 -14.859375 C 7.453125 -14.859375 8.257812 -14.707031 9 -14.40625 C 9.75 -14.101562 10.398438 -13.679688 10.953125 -13.140625 C 11.515625 -12.609375 11.953125 -11.988281 12.265625 -11.28125 C 12.578125 -10.582031 12.734375 -9.828125 12.734375 -9.015625 C 12.734375 -7.679688 12.4375 -6.535156 11.84375 -5.578125 C 11.25 -4.617188 10.429688 -3.898438 9.390625 -3.421875 L 12.59375 0 L 8.5 0 Z M 4.5 -5.359375 L 5.78125 -5.359375 C 7 -5.359375 7.929688 -5.648438 8.578125 -6.234375 C 9.234375 -6.828125 9.5625 -7.671875 9.5625 -8.765625 C 9.5625 -9.378906 9.441406 -9.929688 9.203125 -10.421875 C 8.972656 -10.921875 8.617188 -11.316406 8.140625 -11.609375 C 7.671875 -11.910156 7.082031 -12.0625 6.375 -12.0625 L 4.5 -12.0625 Z M 4.5 -5.359375 "/></g></g></g><g fill="#76807a" fill-opacity="1"><g transform="translate(163.811065, 73.975177)"><g/></g></g><g fill="#76807a" fill-opacity="1"><g transform="translate(173.901682, 73.975177)"><g><path d="M 12.203125 0 L 11.21875 -2 L 4.03125 -2 L 3.078125 0 L -0.125 0 L 7.71875 -15.109375 L 15.578125 0 Z M 7.59375 -9.40625 L 5.359375 -4.78125 L 9.875 -4.78125 Z M 7.59375 -9.40625 "/></g></g></g><g fill="#76807a" fill-opacity="1"><g transform="translate(191.051268, 73.975177)"><g><path d="M 4.5 0 L 1.421875 0 L 1.421875 -14.859375 L 6.484375 -14.859375 C 7.398438 -14.859375 8.234375 -14.6875 8.984375 -14.34375 C 9.742188 -14.007812 10.398438 -13.554688 10.953125 -12.984375 C 11.503906 -12.421875 11.929688 -11.785156 12.234375 -11.078125 C 12.546875 -10.367188 12.703125 -9.632812 12.703125 -8.875 C 12.703125 -7.613281 12.425781 -6.476562 11.875 -5.46875 C 11.320312 -4.46875 10.5625 -3.679688 9.59375 -3.109375 C 8.632812 -2.535156 7.53125 -2.25 6.28125 -2.25 L 4.5 -2.25 Z M 4.5 -5.0625 L 6.203125 -5.0625 C 6.921875 -5.0625 7.523438 -5.21875 8.015625 -5.53125 C 8.515625 -5.84375 8.890625 -6.265625 9.140625 -6.796875 C 9.398438 -7.328125 9.53125 -7.910156 9.53125 -8.546875 C 9.53125 -9.140625 9.40625 -9.703125 9.15625 -10.234375 C 8.914062 -10.765625 8.5625 -11.203125 8.09375 -11.546875 C 7.625 -11.890625 7.050781 -12.0625 6.375 -12.0625 L 4.5 -12.0625 Z M 4.5 -5.0625 "/></g></g></g><g fill="#76807a" fill-opacity="1"><g transform="translate(206.047262, 73.975177)"><g><path d="M 4.5 0 L 1.421875 0 L 1.421875 -14.859375 L 6.484375 -14.859375 C 7.398438 -14.859375 8.234375 -14.6875 8.984375 -14.34375 C 9.742188 -14.007812 10.398438 -13.554688 10.953125 -12.984375 C 11.503906 -12.421875 11.929688 -11.785156 12.234375 -11.078125 C 12.546875 -10.367188 12.703125 -9.632812 12.703125 -8.875 C 12.703125 -7.613281 12.425781 -6.476562 11.875 -5.46875 C 11.320312 -4.46875 10.5625 -3.679688 9.59375 -3.109375 C 8.632812 -2.535156 7.53125 -2.25 6.28125 -2.25 L 4.5 -2.25 Z M 4.5 -5.0625 L 6.203125 -5.0625 C 6.921875 -5.0625 7.523438 -5.21875 8.015625 -5.53125 C 8.515625 -5.84375 8.890625 -6.265625 9.140625 -6.796875 C 9.398438 -7.328125 9.53125 -7.910156 9.53125 -8.546875 C 9.53125 -9.140625 9.40625 -9.703125 9.15625 -10.234375 C 8.914062 -10.765625 8.5625 -11.203125 8.09375 -11.546875 C 7.625 -11.890625 7.050781 -12.0625 6.375 -12.0625 L 4.5 -12.0625 Z M 4.5 -5.0625 "/></g></g></g><g fill="#76807a" fill-opacity="1"><g transform="translate(221.043257, 73.975177)"><g><path d="M 12.203125 0 L 11.21875 -2 L 4.03125 -2 L 3.078125 0 L -0.125 0 L 7.71875 -15.109375 L 15.578125 0 Z M 7.59375 -9.40625 L 5.359375 -4.78125 L 9.875 -4.78125 Z M 7.59375 -9.40625 "/></g></g></g><g fill="#76807a" fill-opacity="1"><g transform="translate(238.192842, 73.975177)"><g><path d="M 1.421875 -14.859375 L 4.5 -14.859375 L 4.5 -2.796875 L 10.484375 -2.796875 L 10.484375 0 L 1.421875 0 Z M 1.421875 -14.859375 "/></g></g></g><g fill="#76807a" fill-opacity="1"><g transform="translate(250.676324, 73.975177)"><g><path d="M 12.203125 0 L 11.21875 -2 L 4.03125 -2 L 3.078125 0 L -0.125 0 L 7.71875 -15.109375 L 15.578125 0 Z M 7.59375 -9.40625 L 5.359375 -4.78125 L 9.875 -4.78125 Z M 7.59375 -9.40625 "/></g></g></g><g fill="#76807a" fill-opacity="1"><g transform="translate(267.82591, 73.975177)"><g><path d="M 12.953125 -6.5625 L 16.09375 -6.5625 C 15.988281 -5.601562 15.710938 -4.710938 15.265625 -3.890625 C 14.828125 -3.066406 14.265625 -2.34375 13.578125 -1.71875 C 12.890625 -1.101562 12.101562 -0.617188 11.21875 -0.265625 C 10.34375 0.0859375 9.414062 0.265625 8.4375 0.265625 C 7.375 0.265625 6.378906 0.0664062 5.453125 -0.328125 C 4.523438 -0.734375 3.710938 -1.285156 3.015625 -1.984375 C 2.316406 -2.691406 1.769531 -3.507812 1.375 -4.4375 C 0.988281 -5.363281 0.796875 -6.359375 0.796875 -7.421875 C 0.796875 -8.484375 0.988281 -9.476562 1.375 -10.40625 C 1.769531 -11.332031 2.316406 -12.148438 3.015625 -12.859375 C 3.710938 -13.566406 4.523438 -14.117188 5.453125 -14.515625 C 6.378906 -14.910156 7.363281 -15.109375 8.40625 -15.109375 C 9.789062 -15.109375 11.0625 -14.78125 12.21875 -14.125 C 13.382812 -13.46875 14.300781 -12.59375 14.96875 -11.5 L 12.5625 -9.796875 C 12.03125 -10.585938 11.398438 -11.175781 10.671875 -11.5625 C 9.953125 -11.957031 9.207031 -12.15625 8.4375 -12.15625 C 7.613281 -12.15625 6.859375 -11.941406 6.171875 -11.515625 C 5.492188 -11.097656 4.957031 -10.53125 4.5625 -9.8125 C 4.164062 -9.09375 3.96875 -8.296875 3.96875 -7.421875 C 3.96875 -6.554688 4.164062 -5.765625 4.5625 -5.046875 C 4.957031 -4.328125 5.492188 -3.757812 6.171875 -3.34375 C 6.859375 -2.925781 7.613281 -2.71875 8.4375 -2.71875 C 9.175781 -2.71875 9.859375 -2.878906 10.484375 -3.203125 C 11.117188 -3.535156 11.65625 -3.988281 12.09375 -4.5625 C 12.539062 -5.144531 12.828125 -5.8125 12.953125 -6.5625 Z M 12.953125 -6.5625 "/></g></g></g><g fill="#76807a" fill-opacity="1"><g transform="translate(286.411212, 73.975177)"><g><path d="M 1.421875 -14.859375 L 4.5 -14.859375 L 4.5 -9.296875 L 11.328125 -9.296875 L 11.328125 -14.859375 L 14.421875 -14.859375 L 14.421875 0 L 11.328125 0 L 11.328125 -6.515625 L 4.5 -6.515625 L 4.5 0 L 1.421875 0 Z M 1.421875 -14.859375 "/></g></g></g><g fill="#76807a" fill-opacity="1"><g transform="translate(303.93966, 73.975177)"><g><path d="M 4.5 -14.859375 L 4.5 0 L 1.421875 0 L 1.421875 -14.859375 Z M 4.5 -14.859375 "/></g></g></g><g fill="#76807a" fill-opacity="1"><g transform="translate(311.557636, 73.975177)"><g><path d="M 12.203125 0 L 11.21875 -2 L 4.03125 -2 L 3.078125 0 L -0.125 0 L 7.71875 -15.109375 L 15.578125 0 Z M 7.59375 -9.40625 L 5.359375 -4.78125 L 9.875 -4.78125 Z M 7.59375 -9.40625 "/></g></g></g><g fill="#aa7338" fill-opacity="1"><g transform="translate(100.183198, 44.601157)"><g><path d="M 29.046875 -14.609375 L 29.046875 -13.78125 C 29.046875 -11.820312 28.6875 -9.976562 27.96875 -8.25 C 27.25 -6.53125 26.253906 -5.007812 24.984375 -3.6875 C 23.722656 -2.375 22.253906 -1.351562 20.578125 -0.625 C 18.898438 0.101562 17.101562 0.46875 15.1875 0.46875 C 13.269531 0.46875 11.476562 0.109375 9.8125 -0.609375 C 8.15625 -1.328125 6.695312 -2.320312 5.4375 -3.59375 C 4.1875 -4.863281 3.207031 -6.328125 2.5 -7.984375 C 1.789062 -9.648438 1.4375 -11.441406 1.4375 -13.359375 C 1.4375 -15.273438 1.789062 -17.066406 2.5 -18.734375 C 3.207031 -20.410156 4.1875 -21.882812 5.4375 -23.15625 C 6.695312 -24.425781 8.15625 -25.421875 9.8125 -26.140625 C 11.476562 -26.859375 13.257812 -27.21875 15.15625 -27.21875 C 17.644531 -27.21875 19.9375 -26.625 22.03125 -25.4375 C 24.125 -24.25 25.769531 -22.675781 26.96875 -20.71875 L 22.515625 -17.484375 C 21.816406 -18.804688 20.816406 -19.875 19.515625 -20.6875 C 18.210938 -21.5 16.769531 -21.90625 15.1875 -21.90625 C 13.707031 -21.90625 12.351562 -21.519531 11.125 -20.75 C 9.90625 -19.988281 8.9375 -18.960938 8.21875 -17.671875 C 7.5 -16.378906 7.140625 -14.941406 7.140625 -13.359375 C 7.140625 -11.796875 7.5 -10.367188 8.21875 -9.078125 C 8.9375 -7.785156 9.90625 -6.765625 11.125 -6.015625 C 12.351562 -5.265625 13.707031 -4.890625 15.1875 -4.890625 C 16.8125 -4.890625 18.300781 -5.296875 19.65625 -6.109375 C 21.007812 -6.921875 21.984375 -8.101562 22.578125 -9.65625 L 15.328125 -9.65625 L 15.328125 -14.609375 Z M 29.046875 -14.609375 "/></g></g></g><g fill="#aa7338" fill-opacity="1"><g transform="translate(130.586705, 44.601157)"><g><path d="M 8.109375 -26.75 L 8.109375 0 L 2.546875 0 L 2.546875 -26.75 Z M 8.109375 -26.75 "/></g></g></g><g fill="#aa7338" fill-opacity="1"><g transform="translate(141.247675, 44.601157)"><g><path d="M 14.296875 -11.0625 L 21.9375 -26.75 L 27.6875 -26.75 L 14.078125 0.46875 L -0.21875 -26.75 L 6.171875 -26.75 Z M 14.296875 -11.0625 "/></g></g></g><g fill="#aa7338" fill-opacity="1"><g transform="translate(168.707746, 44.601157)"><g><path d="M 8.109375 -26.75 L 8.109375 0 L 2.546875 0 L 2.546875 -26.75 Z M 8.109375 -26.75 "/></g></g></g><g fill="#aa7338" fill-opacity="1"><g transform="translate(179.368716, 44.601157)"><g><path d="M 21.578125 -11.28125 L 21.578125 -26.75 L 27.140625 -26.75 L 27.140625 0.46875 L 8.109375 -15.375 L 8.109375 0 L 2.546875 0 L 2.546875 -27.25 Z M 21.578125 -11.28125 "/></g></g></g><g fill="#aa7338" fill-opacity="1"><g transform="translate(209.054302, 44.601157)"><g><path d="M 29.046875 -14.609375 L 29.046875 -13.78125 C 29.046875 -11.820312 28.6875 -9.976562 27.96875 -8.25 C 27.25 -6.53125 26.253906 -5.007812 24.984375 -3.6875 C 23.722656 -2.375 22.253906 -1.351562 20.578125 -0.625 C 18.898438 0.101562 17.101562 0.46875 15.1875 0.46875 C 13.269531 0.46875 11.476562 0.109375 9.8125 -0.609375 C 8.15625 -1.328125 6.695312 -2.320312 5.4375 -3.59375 C 4.1875 -4.863281 3.207031 -6.328125 2.5 -7.984375 C 1.789062 -9.648438 1.4375 -11.441406 1.4375 -13.359375 C 1.4375 -15.273438 1.789062 -17.066406 2.5 -18.734375 C 3.207031 -20.410156 4.1875 -21.882812 5.4375 -23.15625 C 6.695312 -24.425781 8.15625 -25.421875 9.8125 -26.140625 C 11.476562 -26.859375 13.257812 -27.21875 15.15625 -27.21875 C 17.644531 -27.21875 19.9375 -26.625 22.03125 -25.4375 C 24.125 -24.25 25.769531 -22.675781 26.96875 -20.71875 L 22.515625 -17.484375 C 21.816406 -18.804688 20.816406 -19.875 19.515625 -20.6875 C 18.210938 -21.5 16.769531 -21.90625 15.1875 -21.90625 C 13.707031 -21.90625 12.351562 -21.519531 11.125 -20.75 C 9.90625 -19.988281 8.9375 -18.960938 8.21875 -17.671875 C 7.5 -16.378906 7.140625 -14.941406 7.140625 -13.359375 C 7.140625 -11.796875 7.5 -10.367188 8.21875 -9.078125 C 8.9375 -7.785156 9.90625 -6.765625 11.125 -6.015625 C 12.351562 -5.265625 13.707031 -4.890625 15.1875 -4.890625 C 16.8125 -4.890625 18.300781 -5.296875 19.65625 -6.109375 C 21.007812 -6.921875 21.984375 -8.101562 22.578125 -9.65625 L 15.328125 -9.65625 L 15.328125 -14.609375 Z M 29.046875 -14.609375 "/></g></g></g><g fill="#aa7338" fill-opacity="1"><g transform="translate(249.360865, 44.601157)"><g><path d="M 21.96875 0 L 20.21875 -3.59375 L 7.25 -3.59375 L 5.53125 0 L -0.21875 0 L 13.890625 -27.21875 L 28.046875 0 Z M 13.6875 -16.953125 L 9.65625 -8.625 L 17.78125 -8.625 Z M 13.6875 -16.953125 "/></g></g></g><g fill="#aa7338" fill-opacity="1"><g transform="translate(277.17989, 44.601157)"><g><path d="M 10.921875 -4.625 L 8.109375 -4.625 L 8.109375 0 L 2.546875 0 L 2.546875 -26.75 L 11.84375 -26.75 C 13.425781 -26.75 14.882812 -26.476562 16.21875 -25.9375 C 17.5625 -25.40625 18.734375 -24.648438 19.734375 -23.671875 C 20.742188 -22.703125 21.53125 -21.582031 22.09375 -20.3125 C 22.65625 -19.050781 22.9375 -17.691406 22.9375 -16.234375 C 22.9375 -13.835938 22.398438 -11.773438 21.328125 -10.046875 C 20.253906 -8.328125 18.78125 -7.035156 16.90625 -6.171875 L 22.6875 0 L 15.296875 0 Z M 8.109375 -9.65625 L 10.40625 -9.65625 C 12.613281 -9.65625 14.300781 -10.179688 15.46875 -11.234375 C 16.644531 -12.285156 17.234375 -13.804688 17.234375 -15.796875 C 17.234375 -16.898438 17.015625 -17.894531 16.578125 -18.78125 C 16.148438 -19.664062 15.507812 -20.375 14.65625 -20.90625 C 13.8125 -21.445312 12.753906 -21.71875 11.484375 -21.71875 L 8.109375 -21.71875 Z M 8.109375 -9.65625 "/></g></g></g><g fill="#aa7338" fill-opacity="1"><g transform="translate(301.409368, 44.601157)"><g><path d="M 12.859375 0 L 7.28125 0 L 7.28125 -21.71875 L 0.6875 -21.71875 L 0.6875 -26.75 L 19.890625 -26.75 L 19.890625 -21.71875 L 12.859375 -21.71875 Z M 12.859375 0 "/></g></g></g><g fill="#aa7338" fill-opacity="1"><g transform="translate(321.9775, 44.601157)"><g><path d="M 8.984375 -11.84375 C 6.660156 -12.113281 4.800781 -12.929688 3.40625 -14.296875 C 2.019531 -15.660156 1.328125 -17.394531 1.328125 -19.5 C 1.328125 -20.625 1.5625 -21.65625 2.03125 -22.59375 C 2.5 -23.539062 3.113281 -24.363281 3.875 -25.0625 C 4.644531 -25.757812 5.488281 -26.289062 6.40625 -26.65625 C 7.332031 -27.03125 8.257812 -27.21875 9.1875 -27.21875 C 10.53125 -27.21875 11.8125 -26.945312 13.03125 -26.40625 C 14.25 -25.863281 15.375 -24.984375 16.40625 -23.765625 L 12.03125 -20.578125 C 11.664062 -20.960938 11.21875 -21.28125 10.6875 -21.53125 C 10.164062 -21.78125 9.664062 -21.90625 9.1875 -21.90625 C 8.445312 -21.90625 7.847656 -21.691406 7.390625 -21.265625 C 6.941406 -20.847656 6.71875 -20.269531 6.71875 -19.53125 C 6.71875 -18.9375 6.984375 -18.390625 7.515625 -17.890625 C 8.054688 -17.398438 9.035156 -17.109375 10.453125 -17.015625 C 11.984375 -16.921875 13.375 -16.523438 14.625 -15.828125 C 15.882812 -15.140625 16.890625 -14.171875 17.640625 -12.921875 C 18.398438 -11.679688 18.78125 -10.195312 18.78125 -8.46875 C 18.78125 -6.75 18.351562 -5.210938 17.5 -3.859375 C 16.65625 -2.503906 15.539062 -1.441406 14.15625 -0.671875 C 12.78125 0.0859375 11.304688 0.46875 9.734375 0.46875 C 8.203125 0.46875 6.691406 0.164062 5.203125 -0.4375 C 3.722656 -1.050781 2.347656 -2.054688 1.078125 -3.453125 L 5.671875 -6.828125 C 6.296875 -6.054688 6.929688 -5.539062 7.578125 -5.28125 C 8.222656 -5.019531 8.941406 -4.890625 9.734375 -4.890625 C 10.640625 -4.890625 11.410156 -5.203125 12.046875 -5.828125 C 12.679688 -6.460938 13 -7.210938 13 -8.078125 C 13 -9.148438 12.648438 -10.007812 11.953125 -10.65625 C 11.265625 -11.3125 10.273438 -11.707031 8.984375 -11.84375 Z M 8.984375 -11.84375 "/></g></g></g></svg>